<svg width="556" height="424" viewBox="0 0 556 424" fill="none" xmlns="http://www.w3.org/2000/svg">
<path d="M305.835 226.014H262.979V355.975H305.835V226.014Z" fill="#AEBECC"/>
<path d="M118.385 288.555H450.255C460.707 288.555 469.069 280.193 469.069 269.741V46.7523C469.069 36.2997 460.707 27.9376 450.255 27.9376H118.385C107.933 27.9376 99.5706 36.2997 99.5706 46.7523V269.741C99.7448 280.193 108.107 288.555 118.385 288.555Z" fill="#F1F0F0"/>
<path d="M454.61 0.238281H114.204V247.79H454.61V0.238281Z" fill="white"/>
<path d="M454.61 0.238281H114.204V30.2024H454.61V0.238281Z" fill="url(#paint0_linear)"/>
<path d="M284.407 278.277C290.949 278.277 296.253 272.973 296.253 266.431C296.253 259.888 290.949 254.585 284.407 254.585C277.864 254.585 272.561 259.888 272.561 266.431C272.561 272.973 277.864 278.277 284.407 278.277Z" fill="#767677"/>
<path d="M219.601 60.3406H330.573C333.011 60.3406 334.928 58.4243 334.928 55.9854V55.8112C334.928 53.3722 333.011 51.4559 330.573 51.4559H219.601C217.162 51.4559 215.246 53.3722 215.246 55.8112V55.9854C215.246 58.4243 217.162 60.3406 219.601 60.3406Z" fill="#DFE1E8"/>
<path d="M219.601 76.1937H330.573C333.011 76.1937 334.928 74.2774 334.928 71.8385V71.6643C334.928 69.2253 333.011 67.309 330.573 67.309H219.601C217.162 67.309 215.246 69.2253 215.246 71.6643V71.8385C215.246 74.2774 217.162 76.1937 219.601 76.1937Z" fill="#DFE1E8"/>
<path d="M219.601 92.2211H330.573C333.011 92.2211 334.928 90.3048 334.928 87.8658V87.6916C334.928 85.2527 333.011 83.3364 330.573 83.3364H219.601C217.162 83.3364 215.246 85.2527 215.246 87.6916V87.8658C215.246 90.3048 217.162 92.2211 219.601 92.2211Z" fill="#DFE1E8"/>
<path d="M276.916 230.369H149.22C138.593 230.369 129.883 221.659 129.883 211.032V133.335C129.883 122.708 138.593 113.997 149.22 113.997H276.916C287.543 113.997 296.253 122.708 296.253 133.335V211.032C296.079 221.659 287.543 230.369 276.916 230.369ZM149.22 116.61C139.987 116.61 132.322 124.101 132.322 133.509V211.206C132.322 220.439 139.813 228.105 149.22 228.105H276.916C286.149 228.105 293.814 220.614 293.814 211.206V133.509C293.814 124.276 286.323 116.61 276.916 116.61H149.22Z" fill="#DFE1E8"/>
<path d="M159.325 143.439H266.812C271.516 143.439 275.348 139.606 275.348 134.902V133.335C275.348 128.631 271.516 124.798 266.812 124.798H159.325C154.621 124.798 150.788 128.631 150.788 133.335V134.902C150.788 139.606 154.621 143.439 159.325 143.439Z" fill="#DFE1E8"/>
<path d="M380.571 351.097H188.069V360.852H380.571V351.097Z" fill="#F1F0F0"/>
<path d="M416.284 139.606C416.284 149.884 410.709 158.769 402.521 163.473C400.954 164.518 399.037 165.215 397.295 165.912C397.121 165.912 396.947 166.086 396.772 166.086C394.159 166.957 391.372 167.305 388.585 167.305C384.229 167.305 380.048 166.26 376.216 164.344C367.157 159.814 360.885 150.407 360.885 139.432C360.885 124.101 373.254 111.733 388.585 111.733C403.915 111.907 416.284 124.276 416.284 139.606Z" fill="#EFF0F7"/>
<path d="M381.965 136.645C381.965 136.645 380.048 124.45 390.152 124.624C400.257 124.798 400.082 130.896 399.908 136.993C399.734 142.916 395.901 142.568 400.257 150.93C404.612 159.292 396.424 159.292 396.424 159.292L390.152 150.581L381.965 136.645Z" fill="#3D4246"/>
<path d="M389.107 125.844C389.107 125.844 382.313 126.889 381.965 136.645C381.616 146.4 383.881 148.491 389.804 146.4C395.727 144.31 397.644 134.206 397.818 132.638C397.992 131.07 398.34 124.624 389.107 125.844Z" fill="#6D5140"/>
<path d="M401.128 159.814C401.128 162.776 399.56 164.692 397.295 165.912C397.121 165.912 396.947 166.086 396.772 166.086C394.159 166.957 391.372 167.305 388.585 167.305C384.229 167.305 380.048 166.26 376.216 164.344C375.345 162.602 376.564 160.337 379.003 156.679C380.745 154.24 382.313 151.627 385.1 150.407C389.281 149.71 393.637 149.71 396.772 151.452C399.56 153.02 401.128 155.459 401.128 159.814Z" fill="#E45453"/>
<path d="M380.571 156.679L377.435 161.731C377.435 161.731 377.609 161.034 377.958 158.769C377.958 158.421 378.132 157.898 378.132 157.375C378.132 157.201 378.132 157.027 378.306 156.853C379.7 153.717 383.881 151.452 384.055 151.278L380.571 156.679Z" fill="#E45453"/>
<path d="M402.695 163.647C401.128 164.692 399.211 165.389 397.469 166.086C397.295 166.086 397.121 166.26 396.947 166.26C396.25 164.518 395.553 162.95 395.553 162.428C395.553 162.253 395.379 162.079 395.379 161.731C394.856 160.337 393.462 157.201 393.462 154.937C393.462 153.369 393.985 152.149 395.553 151.801C396.25 151.627 396.772 151.627 397.295 151.801C399.037 152.149 400.082 153.717 400.605 155.111C401.128 156.33 401.302 157.375 401.302 157.375C401.302 157.375 401.302 157.55 401.302 157.724C401.476 158.072 401.65 158.769 401.824 159.814C401.824 160.685 402.173 162.079 402.695 163.647Z" fill="#6D5140"/>
<path d="M393.811 142.219C393.288 143.264 392.591 150.233 392.591 150.233C392.591 150.233 384.229 153.369 385.1 151.627C385.449 150.756 385.623 149.71 385.623 148.839C385.623 148.142 385.623 147.446 385.449 147.097C385.449 146.923 385.449 146.749 385.449 146.749C385.449 146.749 394.333 141 393.811 142.219Z" fill="#6D5140"/>
<path d="M386.32 132.812C386.32 132.812 389.804 138.561 393.114 140.826C396.25 143.09 394.682 144.832 394.682 144.832C394.682 144.832 403.044 127.237 395.03 126.018C387.017 124.798 382.139 124.624 381.964 136.645C381.964 136.645 385.623 132.812 386.32 132.812Z" fill="#3D4246"/>
<path d="M390.152 146.4C388.933 148.317 385.449 148.839 385.449 148.839C385.449 148.142 385.449 147.446 385.275 147.097C387.539 147.62 390.152 146.4 390.152 146.4Z" fill="#7D5F4D"/>
<path d="M378.306 156.853C378.306 156.853 378.132 157.201 377.958 158.769L379.177 156.853C379.177 156.853 381.442 153.717 382.139 152.846C382.836 151.975 384.055 151.278 384.055 151.278C384.055 151.278 379.526 153.369 378.306 156.853Z" fill="#BE4545"/>
<path d="M395.03 161.556C395.03 161.556 400.431 159.466 401.999 159.292C401.999 159.292 400.953 150.581 395.553 151.627C390.327 152.498 395.03 161.556 395.03 161.556Z" fill="#E45453"/>
<path d="M385.275 150.581C385.275 150.581 381.268 156.679 382.661 157.201C384.055 157.724 391.198 156.504 394.333 150.756C394.333 150.581 389.804 148.317 385.275 150.581Z" fill="#6D5140"/>
<path d="M426.562 58.7728C426.562 67.6575 423.427 75.6711 418.2 81.9426C416.981 83.3363 415.587 84.73 414.194 85.9495C413.845 86.2979 413.323 86.6463 412.974 86.9948C412.451 87.3432 411.929 87.6916 411.406 88.04C406.702 91.35 401.128 93.6147 395.03 94.3115C393.985 94.4857 392.94 94.4858 391.72 94.4858C391.372 94.4858 390.849 94.4858 390.501 94.4858C389.282 94.4858 388.236 94.4857 387.017 94.3115C385.797 94.1373 384.578 93.9631 383.184 93.7889C377.784 92.7437 372.732 90.3047 368.376 86.9948C367.157 85.9495 365.937 84.9042 364.718 83.859C364.544 83.6847 364.195 83.3363 364.021 83.1621C363.15 82.2911 362.453 81.42 361.756 80.549C357.053 74.4516 354.265 66.7864 354.265 58.4243C354.265 38.5644 370.467 22.3629 390.327 22.3629C410.361 22.7113 426.562 38.9128 426.562 58.7728Z" fill="#EFF0F7"/>
<path d="M414.019 78.6327L411.406 88.2142C406.702 91.5242 401.128 93.7889 395.03 94.4858C393.985 94.66 392.94 94.66 391.72 94.66C391.372 94.66 390.849 94.66 390.501 94.66C389.281 94.66 388.236 94.66 387.017 94.4858C385.797 94.3116 384.578 94.1374 383.184 93.9632C377.784 92.9179 372.732 90.4789 368.376 87.1689C367.854 84.0332 367.331 80.549 366.808 77.239C369.422 76.1938 377.958 73.4064 383.184 71.6643H383.358C383.533 71.6643 383.533 71.6643 383.707 71.4901C384.055 71.3159 384.404 71.3159 384.578 71.1417C384.926 70.9675 385.1 70.9674 385.449 70.7932C386.494 70.4448 387.365 70.0964 387.539 70.0964H387.714L394.856 70.619L396.076 70.7932H396.424C396.424 70.7932 396.424 70.7932 396.598 70.7932C396.947 70.9674 398.34 71.3159 399.908 71.6643C404.612 73.2322 411.406 75.6711 414.019 78.6327Z" fill="#D9C7C1"/>
<path d="M392.417 41.0033C392.417 41.0033 400.954 42.397 399.56 55.8112C398.166 69.2253 390.501 68.0059 389.978 68.0059C389.456 68.0059 382.313 68.1801 381.965 51.8044C381.965 51.8044 381.79 39.6097 392.417 41.0033Z" fill="#7D5F4D"/>
<path d="M396.076 64.1733C396.076 64.1733 395.727 69.748 396.25 70.9675C396.773 72.1869 389.282 76.0196 384.752 71.6643C384.752 71.6643 385.623 65.567 385.449 63.4765C385.275 61.2118 396.076 64.1733 396.076 64.1733Z" fill="#7D5F4D"/>
<path d="M399.734 51.9786C399.734 51.9786 400.605 50.9333 400.953 51.9786C401.302 53.0238 399.385 57.5533 399.56 57.7275C399.56 57.7275 399.385 58.0759 399.211 57.9017C399.037 57.7275 399.734 51.9786 399.734 51.9786Z" fill="#7D5F4D"/>
<path d="M382.139 51.6302C382.139 51.6302 381.268 50.5849 380.92 51.6302C380.571 52.6754 381.965 57.2049 382.139 57.3791C382.139 57.3791 382.487 57.9017 382.662 57.5533L382.139 51.6302Z" fill="#7D5F4D"/>
<path d="M400.257 50.9333C399.908 52.8496 399.734 54.0691 399.734 54.0691L398.514 55.637C398.514 55.637 398.514 51.9785 398.34 51.4559C398.34 51.2817 398.166 50.9333 398.166 50.4107C397.992 49.7139 397.818 49.017 397.818 48.6686C397.643 48.3202 390.501 46.2296 384.055 49.1912C384.055 49.1912 384.055 49.7139 384.055 50.4107C384.055 51.1075 384.055 51.9786 383.707 51.9786C383.01 52.1528 383.358 56.1596 383.358 56.1596L382.313 54.9401C382.313 54.9401 381.965 52.8496 381.79 50.4107C381.79 49.8881 381.616 49.1912 381.616 48.6686C381.442 46.2297 381.79 41.8744 384.926 39.2612C387.017 38.3902 390.501 37.5191 396.076 39.2612C396.076 39.2612 397.295 39.2613 397.818 39.7839C400.953 43.9649 400.257 50.9333 400.257 50.9333Z" fill="#160600"/>
<path d="M386.146 66.2637C386.146 66.2637 387.54 68.1801 390.675 68.1801C393.811 68.1801 395.205 66.438 395.205 66.438C395.205 66.438 393.637 69.5738 390.675 69.5738C387.54 69.3996 386.146 66.2637 386.146 66.2637Z" fill="#886856"/>
<path d="M384.055 71.6643C384.055 71.6643 386.32 75.6711 390.675 76.0195C393.462 76.1937 395.901 72.7095 396.947 70.9674C396.947 71.1417 390.675 68.3543 384.055 71.6643Z" fill="#7D5F4D"/>
<path d="M396.076 69.748C396.076 69.748 394.334 72.0127 390.501 74.4517L392.766 78.1101L396.773 70.9675L396.076 69.748Z" fill="#EDDAD3"/>
<path d="M385.101 70.2706C385.101 70.2706 387.365 73.058 390.675 74.4516L388.062 78.1101L383.533 71.6643L385.101 70.2706Z" fill="#EDDAD3"/>
<path d="M390.675 74.6259L392.592 77.5874C392.592 77.5874 390.501 78.8069 388.585 77.5874L390.675 74.6259Z" fill="#5173AB"/>
<path d="M416.284 78.11C416.284 78.11 416.284 78.1101 416.284 78.2843C416.11 78.9811 415.239 82.1169 414.193 85.9495C413.845 86.2979 413.322 86.6463 412.974 86.9948C412.451 87.3432 411.929 87.6915 411.406 88.04C406.702 91.35 401.128 93.6147 395.03 94.3115C395.553 81.7684 397.121 70.7932 397.121 70.7932C398.34 71.1416 399.386 71.4901 400.431 71.6643C409.664 74.2774 414.193 76.5422 415.761 77.4132C416.11 78.1101 416.284 78.11 416.284 78.11Z" fill="#333757"/>
<path d="M383.358 94.1373C377.958 93.0921 372.906 90.6531 368.551 87.3431C367.331 86.2979 366.112 85.2526 364.892 84.2074C364.718 84.0332 364.37 83.6848 364.195 83.5106C363.499 80.8974 363.15 79.1553 363.15 78.9811C363.15 78.9811 367.68 76.0195 383.358 71.8385C383.358 72.1869 383.533 82.291 383.358 94.1373Z" fill="#333757"/>
<path d="M391.895 77.9358C391.721 81.2458 391.721 87.5174 391.721 94.8342C391.372 94.8342 390.849 94.8342 390.501 94.8342C389.282 94.8342 388.236 94.8342 387.017 94.66C387.714 85.6011 388.933 80.0263 389.456 77.9358C389.63 77.239 389.804 76.8905 389.804 76.8905L391.895 77.239C391.895 77.4132 391.895 77.5874 391.895 77.9358Z" fill="#5173AB"/>
<path d="M418.201 81.9426C416.981 83.3363 415.587 84.73 414.194 85.9495C413.845 86.2979 413.323 86.6464 412.974 86.9948L415.762 77.5874C415.936 77.7616 416.11 77.9359 416.284 78.1101C416.807 79.1553 417.504 80.3748 418.201 81.9426Z" fill="#333757"/>
<path d="M364.892 84.2074C364.718 84.0332 364.37 83.6848 364.195 83.5106C363.324 82.6395 362.627 81.7685 361.931 80.8974C362.279 79.8522 362.802 79.3295 363.15 78.9811L364.892 84.2074Z" fill="#333757"/>
<path d="M172.913 20.9692H132.496C130.231 20.9692 128.489 19.2272 128.489 16.9624V13.8267C128.489 11.562 130.231 9.81982 132.496 9.81982H172.913C175.178 9.81982 176.92 11.562 176.92 13.8267V16.9624C176.92 19.053 175.178 20.9692 172.913 20.9692Z" fill="#F6F7FB"/>
<path d="M416.284 205.632C416.284 220.962 403.915 233.331 388.585 233.331C373.254 233.331 360.885 220.962 360.885 205.632C360.885 190.301 373.254 177.932 388.585 177.932C403.915 177.932 416.284 190.301 416.284 205.632Z" fill="#EFF0F7"/>
<path d="M388.585 216.781C387.888 216.781 387.191 216.084 387.191 215.387V196.05C387.191 195.353 387.888 194.656 388.585 194.656C389.281 194.656 389.978 195.353 389.978 196.05V215.387C389.978 216.084 389.456 216.781 388.585 216.781Z" fill="#959494"/>
<path d="M398.34 207.025H379.003C378.306 207.025 377.609 206.328 377.609 205.632C377.609 204.935 378.306 204.238 379.003 204.238H398.34C399.037 204.238 399.734 204.935 399.734 205.632C399.734 206.503 399.037 207.025 398.34 207.025Z" fill="#959494"/>
<path d="M329.527 141.348H314.371C311.41 141.348 308.971 138.909 308.971 135.948V120.791C308.971 117.83 311.41 115.391 314.371 115.391H329.527C332.489 115.391 334.928 117.83 334.928 120.791V135.948C334.928 138.909 332.489 141.348 329.527 141.348Z" fill="#DFE1E8"/>
<path d="M320.991 134.031L314.371 128.282C313.849 127.76 313.849 127.063 314.197 126.54C314.72 126.018 315.417 126.018 315.939 126.366L320.643 130.373L327.263 123.056C327.786 122.534 328.482 122.534 329.005 122.882C329.528 123.405 329.528 124.101 329.179 124.624L320.991 134.031Z" fill="#F3F3F3"/>
<path d="M329.527 174.622H314.371C311.41 174.622 308.971 172.183 308.971 169.222V154.066C308.971 151.104 311.41 148.665 314.371 148.665H329.527C332.489 148.665 334.928 151.104 334.928 154.066V169.222C334.928 172.183 332.489 174.622 329.527 174.622Z" fill="#DFE1E8"/>
<path d="M320.991 167.305L314.371 161.557C313.849 161.034 313.849 160.337 314.197 159.814C314.72 159.292 315.417 159.292 315.939 159.64L320.643 163.647L327.263 156.33C327.786 155.808 328.482 155.808 329.005 156.156C329.528 156.679 329.528 157.375 329.179 157.898L320.991 167.305Z" fill="#F3F3F3"/>
<path d="M329.527 207.896H314.371C311.41 207.896 308.971 205.457 308.971 202.496V187.34C308.971 184.378 311.41 181.939 314.371 181.939H329.527C332.489 181.939 334.928 184.378 334.928 187.34V202.496C334.928 205.457 332.489 207.896 329.527 207.896Z" fill="#DFE1E8"/>
<path d="M204.27 368.866C204.27 368.866 202.877 371.828 201.832 373.047C200.786 374.267 196.431 376.357 196.431 379.841C196.431 383.674 203.574 382.629 206.361 382.454C209.148 382.28 209.323 380.364 210.542 378.099C211.761 375.834 212.981 376.357 213.155 374.615C213.329 372.873 212.284 369.04 212.284 369.04L204.27 368.866Z" fill="#141C24"/>
<path d="M204.27 367.821L204.096 369.563C204.096 369.563 208.451 371.131 212.807 369.737L212.633 367.298L204.27 367.821Z" fill="#504A47"/>
<path d="M256.359 368.866C256.359 368.866 257.753 371.828 258.798 373.047C259.843 374.267 264.199 376.357 264.199 379.841C264.199 383.674 257.056 382.629 254.269 382.454C251.481 382.28 251.307 380.364 250.088 378.099C248.868 376.009 247.649 376.357 247.475 374.615C247.3 372.873 248.346 369.04 248.346 369.04L256.359 368.866Z" fill="#141C24"/>
<path d="M256.533 367.821L256.708 369.563C256.708 369.563 252.352 371.131 247.997 369.737L248.171 367.298L256.533 367.821Z" fill="#504A47"/>
<path d="M254.094 319.913C254.094 324.617 258.45 367.298 258.45 367.298C257.927 368.866 247.3 368.692 245.558 367.821C243.816 367.124 239.112 324.791 238.764 320.087C238.416 315.384 231.447 274.444 230.054 274.619C228.66 274.793 221.692 318.694 220.472 322.352C219.253 326.011 214.026 368.344 214.026 368.344C210.368 370.434 201.657 367.821 201.657 367.821C201.657 367.821 203.574 324.268 203.748 322.875C204.096 320.958 203.748 315.732 204.619 304.06C205.316 293.608 208.103 270.96 209.845 258.591C209.845 258.069 210.019 257.72 210.019 257.372C210.368 254.933 210.542 253.191 210.716 252.32C210.716 251.971 210.716 251.797 210.716 251.797C211.239 251.623 211.762 251.449 212.11 251.275C224.305 247.094 247.649 247.442 247.649 247.442C247.649 247.442 247.997 251.623 247.997 251.797C247.997 251.971 247.997 252.494 248.171 253.017C248.346 254.062 248.52 255.63 248.694 257.546V257.72C249.565 264.34 250.61 274.096 250.61 275.141C250.436 276.709 254.094 315.21 254.094 319.913Z" fill="#293F50"/>
<path d="M255.837 181.765L249.739 203.367C249.565 204.064 249.217 204.935 249.042 205.98C247.997 209.813 246.778 215.736 246.429 222.182C246.255 226.537 246.952 244.48 246.952 244.48C246.952 244.48 237.893 247.79 224.305 247.094C224.305 247.094 209.671 246.745 210.891 237.686C214.026 213.994 210.89 204.064 210.542 201.799C210.542 201.799 208.8 190.824 207.406 181.242C211.587 179.674 228.834 173.229 228.834 173.229L237.893 173.925C238.067 173.751 252.004 177.061 255.837 181.765Z" fill="#D9C7C1"/>
<path d="M233.538 142.568C233.538 142.568 242.422 144.136 240.855 158.072C239.287 172.009 231.447 170.79 230.925 170.79C230.402 170.79 223.085 170.964 222.563 153.891C222.737 153.717 222.563 141.174 233.538 142.568Z" fill="#6D5140"/>
<path d="M237.37 166.609C237.37 166.609 237.022 172.358 237.545 173.577C238.067 174.796 230.402 178.803 225.698 174.274C225.698 174.274 226.744 168.002 226.395 165.738C226.047 163.647 237.37 166.609 237.37 166.609Z" fill="#6D5140"/>
<path d="M241.029 154.066C241.029 154.066 242.074 153.02 242.422 154.066C242.771 155.111 240.855 159.814 241.029 159.989C241.029 159.989 240.855 160.337 240.68 160.163C240.332 159.989 241.029 154.066 241.029 154.066Z" fill="#5D4334"/>
<path d="M222.737 153.543C222.737 153.543 221.866 152.498 221.343 153.543C220.995 154.588 222.388 159.292 222.563 159.64C222.563 159.64 222.911 160.163 223.085 159.989C223.434 159.64 222.737 153.543 222.737 153.543Z" fill="#5D4334"/>
<path d="M241.726 152.846C241.377 154.762 241.203 156.156 241.203 156.156L239.984 157.898C239.984 157.898 239.983 154.24 239.809 153.543C239.809 153.369 239.635 152.846 239.635 152.498C239.461 151.801 239.287 150.93 239.287 150.756C239.112 150.407 231.621 148.142 225.001 151.278C225.001 151.278 225.001 151.801 225.001 152.498C225.001 153.194 225.001 154.066 224.653 154.24C223.956 154.414 224.305 158.595 224.305 158.595L223.259 157.376C223.259 157.376 222.911 155.285 222.737 152.672C222.737 152.149 222.563 151.452 222.563 150.93C222.388 148.491 222.737 143.961 225.873 141.174C228.137 140.303 234.06 139.258 237.37 141.174C237.37 141.174 239.112 142.219 239.461 142.568C242.945 146.575 241.726 152.846 241.726 152.846Z" fill="#351B1B"/>
<path d="M226.918 168.699C226.918 168.699 228.312 170.615 231.622 170.615C234.932 170.615 236.325 168.873 236.325 168.873C236.325 168.873 234.757 172.183 231.622 172.183C228.486 172.009 226.918 168.699 226.918 168.699Z" fill="#765744"/>
<path d="M224.827 174.448C224.827 174.448 227.266 178.629 231.796 178.978C234.583 179.152 237.196 175.493 238.241 173.751C238.241 173.751 231.796 170.964 224.827 174.448Z" fill="#6D5140"/>
<path d="M237.37 172.358C237.37 172.358 235.628 174.796 231.621 177.235L234.06 180.894L238.241 173.577L237.37 172.358Z" fill="#EDDAD3"/>
<path d="M225.873 173.054C225.873 173.054 228.137 176.016 231.622 177.41L229.008 181.242L224.479 174.622L225.873 173.054Z" fill="#EDDAD3"/>
<path d="M231.796 177.41L233.886 180.545C233.886 180.545 231.796 181.765 229.705 180.545L231.796 177.41Z" fill="#5173AB"/>
<path d="M210.542 248.487C210.542 248.487 221.691 252.668 246.952 248.661L246.603 244.132C246.603 244.132 231.97 248.487 210.89 244.829L210.542 248.487Z" fill="#1B2833"/>
<path d="M238.241 173.751C238.241 173.751 235.628 193.263 235.977 210.161C236.325 227.059 241.726 258.591 241.726 258.591C241.726 258.591 251.481 257.72 253.92 254.585C253.92 254.585 248.346 224.272 248.52 219.743C248.694 215.213 255.662 181.416 255.662 181.416C255.662 181.416 253.049 177.584 238.241 173.751Z" fill="#395469"/>
<path d="M224.305 174.796C224.305 174.796 224.305 193.263 223.956 210.161C223.608 227.059 221.343 258.243 221.343 258.243C221.343 258.243 209.845 256.675 207.58 253.539C207.58 253.539 211.587 224.098 211.413 219.568C211.239 215.039 206.187 181.591 206.187 181.591C206.187 181.591 207.929 179.152 224.305 174.796Z" fill="#395469"/>
<path d="M232.493 245.7H225.698V250.752H232.493V245.7Z" fill="#3F5F79"/>
<path d="M230.75 179.674C230.75 179.674 227.615 190.127 227.441 210.858C227.092 231.589 227.789 237.512 227.789 237.512L230.228 242.216L233.364 237.338C233.364 237.338 232.318 189.604 233.015 179.849L230.75 179.674Z" fill="#5173AB"/>
<path d="M243.468 208.942C243.468 208.942 247.997 206.677 248.694 206.328C249.391 205.98 256.882 204.761 257.927 204.761C258.798 204.761 258.972 205.632 258.624 205.806C258.276 206.154 250.785 207.374 250.61 207.548C250.436 207.722 251.307 207.722 251.307 207.722C251.307 207.722 259.495 207.548 260.018 208.071C260.54 208.593 260.018 209.116 259.669 209.29C259.669 209.29 260.366 210.161 259.495 210.51C258.624 210.858 257.404 211.032 257.404 211.032C257.404 211.032 258.45 211.555 257.753 212.077C257.056 212.6 248.346 215.213 248.346 215.213C248.346 215.213 245.21 209.116 243.468 208.942Z" fill="#6D5140"/>
<path d="M259.147 224.62C253.224 226.014 239.635 223.749 234.409 222.53C233.364 222.356 232.144 222.007 230.75 221.833C228.66 221.485 226.395 220.962 224.653 220.614C222.388 220.265 220.82 219.917 220.82 219.917C220.82 219.917 249.391 213.471 250.436 213.471C251.481 213.471 247.823 196.747 247.823 196.747C247.823 196.747 244.165 182.81 246.081 177.235C246.081 177.235 253.398 179.5 255.662 181.068C257.056 181.939 257.927 188.036 258.798 192.217C260.018 197.444 262.631 209.29 262.805 211.903C263.153 214.342 265.07 223.227 259.147 224.62Z" fill="#395469"/>
<path d="M215.42 177.41C215.42 177.41 206.71 180.371 206.187 181.591C204.445 186.468 203.574 191.695 203.051 193.785C202.354 196.398 200.786 204.064 200.264 206.677C199.741 209.813 198.696 221.31 199.218 223.052C199.741 225.317 204.967 225.143 207.755 224.62C210.542 224.098 249.739 214.69 249.739 214.69C249.739 214.69 247.475 207.374 247.475 206.851C247.475 206.851 217.336 210.335 213.504 211.032C211.239 211.555 210.891 211.729 210.891 211.729C210.891 211.729 217.336 184.378 215.42 177.41Z" fill="#395469"/>
<path d="M220.646 209.987C220.646 209.987 216.64 206.851 216.117 206.328C215.594 205.806 208.452 203.018 207.406 202.844C206.535 202.67 206.361 203.367 206.361 203.715C206.535 204.412 213.852 206.851 213.852 207.025C214.026 207.199 213.155 207.025 213.155 207.025C213.155 207.025 205.142 205.109 204.619 205.632C203.922 205.98 204.445 206.677 204.793 206.851C204.793 206.851 203.922 207.548 204.619 208.071C205.316 208.593 206.535 209.116 206.535 209.116C206.535 209.116 205.316 209.464 206.013 209.987C206.535 210.684 210.716 211.555 210.716 211.555C210.716 211.555 218.904 209.813 220.646 209.987Z" fill="#6D5140"/>
<path d="M243.99 216.084L230.75 221.833C228.66 221.485 226.395 220.962 224.653 220.614L243.99 216.084Z" fill="#273A48"/>
<path d="M237.719 142.393C237.719 142.393 239.983 141.348 241.203 142.742C242.422 144.136 242.597 152.149 241.029 155.111C239.461 158.246 241.203 144.31 237.719 142.393Z" fill="#351B1B"/>
<path d="M153.576 220.962H149.569V400.572H153.576V220.962Z" fill="#706966"/>
<path d="M159.15 370.957H52.8823C46.2623 370.957 41.036 365.73 41.036 359.11V157.898C41.036 151.278 46.2623 146.052 52.8823 146.052H159.15C165.77 146.052 170.997 151.278 170.997 157.898V359.11C170.997 365.556 165.77 370.957 159.15 370.957Z" fill="#BEAFAB"/>
<path d="M155.666 362.072H56.1922C49.7465 362.072 44.5202 356.846 44.5202 350.4V161.382C44.5202 154.937 49.7465 149.71 56.1922 149.71H155.666C162.112 149.71 167.338 154.937 167.338 161.382V350.4C167.512 356.846 162.286 362.072 155.666 362.072Z" fill="white"/>
<path d="M125.354 144.31H86.679V153.02H125.354V144.31Z" fill="#706966"/>
<path d="M143.82 353.71H65.2512C58.8055 353.71 53.7534 348.484 53.7534 342.212V297.44C53.7534 290.994 58.9797 285.942 65.2512 285.942H143.82C150.266 285.942 155.318 291.169 155.318 297.44V342.212C155.318 348.484 150.091 353.71 143.82 353.71ZM65.2512 287.336C59.6765 287.336 55.147 291.865 55.147 297.44V342.212C55.147 347.787 59.6765 352.316 65.2512 352.316H143.82C149.395 352.316 153.924 347.787 153.924 342.212V297.44C153.924 291.865 149.395 287.336 143.82 287.336H65.2512Z" fill="#B9DDF5"/>
<path d="M141.555 240.474C134.413 240.474 128.664 234.725 128.664 227.582C128.664 220.439 134.413 214.69 141.555 214.69C148.698 214.69 154.447 220.439 154.447 227.582C154.272 234.725 148.524 240.474 141.555 240.474ZM141.555 216.433C135.284 216.433 130.232 221.485 130.232 227.756C130.232 234.028 135.284 239.08 141.555 239.08C147.827 239.08 152.879 234.028 152.879 227.756C152.879 221.485 147.827 216.433 141.555 216.433Z" fill="#B9DDF5"/>
<path d="M141.555 270.089C134.413 270.089 128.664 264.34 128.664 257.198C128.664 250.055 134.413 244.306 141.555 244.306C148.698 244.306 154.447 250.055 154.447 257.198C154.272 264.34 148.524 270.089 141.555 270.089ZM141.555 245.874C135.284 245.874 130.232 250.926 130.232 257.198C130.232 263.469 135.284 268.521 141.555 268.521C147.827 268.521 152.879 263.469 152.879 257.198C152.879 250.926 147.827 245.874 141.555 245.874Z" fill="#B9DDF5"/>
<path d="M83.7174 228.279C82.6721 228.279 81.6269 228.279 80.5816 228.105C79.3622 227.93 78.3169 227.756 77.0974 227.582C72.2196 226.537 67.5159 224.446 63.5091 221.31C62.2896 220.439 61.2443 219.394 60.1991 218.349C60.0249 218.175 59.8507 218.001 59.6765 217.652C58.9796 216.955 58.2828 216.084 57.5859 215.213C53.0565 209.29 50.6176 202.322 50.6176 195.005C50.6176 176.713 65.4254 161.731 83.8916 161.731V163.299C66.4707 163.299 52.1855 177.584 52.1855 195.005C52.1855 202.147 54.4502 208.767 58.8054 214.342C59.5022 215.213 60.1991 215.91 60.8959 216.781C61.0702 216.955 61.2443 217.129 61.4186 217.304C62.4638 218.349 63.5091 219.22 64.5543 220.091C68.3869 223.053 72.9164 225.143 77.4459 226.014C78.4911 226.188 79.7106 226.363 80.7558 226.537C81.8011 226.711 82.8464 226.711 83.7174 226.711C84.0658 226.711 84.4143 226.711 84.7627 226.711C85.8079 226.711 86.679 226.537 87.55 226.537C92.7763 225.84 97.6542 223.924 102.009 220.962C102.532 220.614 102.88 220.265 103.229 219.917C103.577 219.568 103.926 219.394 104.274 219.046C105.494 218.001 106.713 216.781 107.758 215.387C112.636 209.638 115.249 202.496 115.249 195.005C115.249 193.437 115.075 191.869 114.901 190.301L116.295 190.127C116.469 191.695 116.643 193.437 116.643 195.005C116.643 202.844 113.856 210.335 108.804 216.433C107.758 217.826 106.365 219.046 105.145 220.265C104.797 220.614 104.274 220.962 103.926 221.31C103.577 221.659 103.055 222.007 102.532 222.356C98.0026 225.492 92.7763 227.582 87.3758 228.279C86.3306 228.453 85.4595 228.453 84.4143 228.453C84.5885 228.279 84.24 228.279 83.7174 228.279Z" fill="#B9DDF5"/>
<path d="M106.887 212.774C106.713 212.6 106.713 212.426 106.539 212.426C106.539 212.426 106.539 212.252 106.365 212.252C104.971 211.381 100.79 209.464 92.6021 207.025C91.0343 206.503 89.989 206.328 89.6406 206.154C89.4664 206.154 89.4664 206.154 89.4664 206.154H89.118C88.7695 205.457 88.7695 202.844 88.9437 201.276C90.1632 199.883 91.2085 197.792 91.7311 194.482C91.9053 194.656 92.0795 194.308 92.0795 194.308C91.9053 194.134 93.6474 190.127 93.299 189.082C93.1248 188.559 92.7763 188.559 92.4279 188.733C92.4279 188.559 92.4279 188.211 92.6021 188.036C92.6021 188.036 93.299 181.765 90.1632 178.281C89.8148 177.932 88.5953 177.932 88.5953 177.932C83.5432 176.364 80.4075 177.061 78.4911 177.932C75.7038 180.197 75.5296 184.204 75.5296 186.294C75.5296 186.817 75.7038 187.34 75.7038 187.862C75.7038 188.036 75.7038 188.211 75.7038 188.385C75.3554 188.211 75.007 188.211 74.8328 188.733C74.4843 189.604 75.7038 193.785 75.878 193.96C75.878 193.96 76.2264 194.308 76.4006 194.134C76.9233 197.792 77.9685 199.883 79.188 201.276C79.0138 203.367 78.6654 205.806 78.6654 206.503C78.4912 206.503 78.1427 206.677 77.7943 206.851C77.6201 206.851 77.6201 206.851 77.4459 207.025H77.2717C62.9865 210.858 58.9797 213.471 58.9797 213.471C58.6312 213.645 58.2828 214.342 57.9344 215.213C58.6312 216.084 59.3281 216.781 60.0249 217.652C60.1991 217.826 60.3733 218.001 60.5475 218.349C61.5928 219.394 62.6381 220.265 63.8575 221.31C67.6902 224.272 72.2196 226.363 77.0975 227.408C78.1427 227.582 79.3622 227.756 80.4075 227.93C81.4527 228.105 82.498 228.105 83.5432 228.105C83.8917 228.105 84.2401 228.105 84.5885 228.105C85.6337 228.105 86.5048 227.93 87.55 227.93C92.9506 227.234 98.0026 225.317 102.358 222.182C102.881 221.833 103.229 221.485 103.752 221.136C104.1 220.788 104.448 220.439 104.971 220.265C106.19 219.22 107.41 217.826 108.629 216.607C107.933 214.516 107.41 213.297 106.887 212.774Z" fill="#B9DDF5"/>
<path d="M493.459 285.071H454.958V287.336H493.459V285.071Z" fill="#E2D2CA"/>
<path d="M488.232 293.259H484.922V397.088H488.232V293.259Z" fill="#706966"/>
<path d="M460.881 284.374H434.227V287.684H460.881V284.374Z" fill="#CCBDB7"/>
<path d="M452.694 256.675H442.589V287.336H452.694V256.675Z" fill="#4768A9"/>
<path d="M507.221 287.336H359.143V293.259H507.221V287.336Z" fill="#B59074"/>
<path d="M535.618 251.623C535.618 251.623 537.185 274.27 532.83 277.058C530.043 278.8 518.893 284.549 519.242 285.594C519.59 286.639 525.513 295.175 525.513 295.175C525.513 295.175 546.767 281.239 547.464 276.709C548.161 272.354 546.419 243.435 543.457 242.041C541.192 240.996 540.147 241.867 537.36 243.958C533.527 246.919 535.618 251.623 535.618 251.623Z" fill="#333757"/>
<path d="M496.943 258.243L495.027 257.546C495.027 257.546 497.291 251.971 498.337 252.146C499.556 252.32 500.95 252.668 500.95 252.668L496.943 258.243Z" fill="#EAD8CF"/>
<path d="M496.42 259.114C496.594 258.94 500.427 251.797 500.427 251.797L508.441 252.842L504.085 261.379L496.42 259.114Z" fill="#DB9C5C"/>
<path d="M509.486 382.977C509.486 382.977 510.183 387.506 510.183 388.203C510.183 388.9 517.5 387.855 517.5 387.855L518.022 382.454C518.196 382.28 510.357 382.28 509.486 382.977Z" fill="#434874"/>
<path d="M510.183 387.681C510.183 387.681 507.918 390.468 505.653 391.687C503.389 392.907 499.904 393.43 498.511 394.649C497.64 395.52 495.026 399.353 504.26 399.353C513.493 399.353 518.022 399.875 519.067 398.482C520.113 396.914 517.674 387.506 517.674 387.506C517.674 387.506 515.409 388.029 510.183 387.681Z" fill="#2A2D47"/>
<path d="M462.798 382.977C462.798 382.977 463.495 387.507 463.495 388.203C463.495 388.9 470.811 387.855 470.811 387.855L471.334 382.454C471.508 382.454 463.669 382.28 462.798 382.977Z" fill="#434874"/>
<path d="M463.495 387.681C463.495 387.681 461.23 390.468 458.965 391.687C456.7 392.907 448.513 393.952 447.119 395.172C446.248 396.043 444.506 399.701 457.572 399.353C466.805 399.179 471.334 399.875 472.379 398.482C473.425 396.914 470.986 387.506 470.986 387.506C470.986 387.506 468.895 388.203 463.495 387.681Z" fill="#2A2D47"/>
<path d="M533.004 303.537C533.004 303.537 506.524 308.067 500.601 308.938C494.678 309.809 462.275 317.997 458.094 320.436C454.784 322.352 459.836 369.389 460.881 387.332H473.599L474.47 333.502C489.8 333.85 500.775 329.843 511.925 331.585C523.074 333.327 532.307 335.766 539.45 326.185C539.624 326.185 539.798 305.628 533.004 303.537Z" fill="#2A2D47"/>
<path d="M506.873 387.332L519.242 386.635L520.461 333.501C527.081 333.676 529.346 333.327 534.572 332.63L544.676 309.286C535.792 311.028 507.57 318.171 503.911 320.436C500.775 322.352 505.653 369.389 506.873 387.332Z" fill="#2A2D47"/>
<path d="M520.81 204.238C520.81 204.238 511.054 201.625 507.395 209.116C503.737 216.607 505.305 230.892 510.183 232.286C515.061 233.679 522.029 232.111 524.119 227.408C526.21 222.704 527.778 216.084 527.255 211.729C526.907 207.374 523.423 205.283 520.81 204.238Z" fill="#EFA986"/>
<path d="M512.796 230.892C512.796 230.892 512.97 236.641 512.273 237.86C511.577 239.08 525.862 238.731 525.862 238.731C525.862 238.731 523.597 231.937 524.817 226.014C526.036 220.091 512.796 230.892 512.796 230.892Z" fill="#EFA986"/>
<path d="M525.513 223.749C525.513 223.749 524.816 225.317 521.158 224.969C517.5 224.795 512.622 220.265 511.054 219.917C509.486 219.568 509.486 218.697 509.486 218.697L508.615 220.091L507.047 220.265C507.047 220.265 508.092 215.91 505.828 214.342C503.389 212.774 506.873 200.231 518.893 203.193C518.893 203.193 527.952 204.935 528.126 209.987C528.126 215.213 527.255 221.136 525.513 223.749Z" fill="#3B4048"/>
<path d="M511.576 237.686C511.576 237.686 511.576 235.421 512.622 235.073C513.667 234.899 523.771 233.505 524.991 234.028L525.513 237.164C525.513 236.989 523.074 238.557 511.576 237.686Z" fill="#E2D2CA"/>
<path d="M508.615 217.652C508.963 215.736 511.054 213.471 512.273 216.607C513.493 219.568 511.402 223.924 510.009 223.749C508.615 223.401 508.267 220.265 508.615 217.652Z" fill="#EFA986"/>
<path d="M523.597 205.632C523.597 205.632 535.443 205.109 525.688 223.575L523.597 205.632Z" fill="#3B4048"/>
<path d="M549.903 393.604L549.032 396.043L511.925 384.545L513.667 379.667L549.903 393.604Z" fill="#918783"/>
<path d="M514.886 342.386H510.705V382.803H514.886V342.386Z" fill="#918783"/>
<path d="M525.165 340.296H500.253V342.735H525.165V340.296Z" fill="#5F5955"/>
<path d="M475.167 393.604L476.038 396.043L513.319 384.545L511.576 379.319L475.167 393.604Z" fill="#918783"/>
<path d="M501.298 395.869V398.656L513.318 384.545L511.576 379.319L501.298 395.869Z" fill="#918783"/>
<path d="M475.167 400.572C477.091 400.572 478.651 399.012 478.651 397.088C478.651 395.164 477.091 393.604 475.167 393.604C473.242 393.604 471.682 395.164 471.682 397.088C471.682 399.012 473.242 400.572 475.167 400.572Z" fill="#BFB3AD"/>
<path d="M504.608 400.572C506.532 400.572 508.092 399.012 508.092 397.088C508.092 395.164 506.532 393.604 504.608 393.604C502.684 393.604 501.124 395.164 501.124 397.088C501.124 399.012 502.684 400.572 504.608 400.572Z" fill="#BFB3AD"/>
<path d="M549.903 400.572C551.827 400.572 553.387 399.012 553.387 397.088C553.387 395.164 551.827 393.604 549.903 393.604C547.978 393.604 546.418 395.164 546.418 397.088C546.418 399.012 547.978 400.572 549.903 400.572Z" fill="#BFB3AD"/>
<path d="M487.535 340.296H537.708C540.147 340.296 542.237 338.379 542.237 335.766V335.592C542.237 333.153 540.321 331.062 537.708 331.062H487.535C485.096 331.062 483.006 332.979 483.006 335.592V335.766C483.006 338.205 485.096 340.296 487.535 340.296Z" fill="#E2D2CA"/>
<path d="M381.442 293.259H378.132V397.088H381.442V293.259Z" fill="#706966"/>
<path d="M408.444 271.483H487.013C489.452 271.483 491.542 269.567 491.542 266.953V214.168C491.542 211.729 489.626 209.638 487.013 209.638H408.444C406.005 209.638 403.915 211.555 403.915 214.168V266.953C403.915 269.392 406.005 271.483 408.444 271.483Z" fill="#6788C5"/>
<path d="M487.884 213.123H407.399V261.727H487.884V213.123Z" fill="#F6F7FB"/>
<path d="M487.884 213.123H407.399V216.955H487.884V213.123Z" fill="#CFCFD6"/>
<path d="M413.148 258.766H417.329C418.897 258.766 420.116 257.546 420.116 255.978V222.53C420.116 220.962 418.897 219.743 417.329 219.743H413.148C411.58 219.743 410.361 220.962 410.361 222.53V255.978C410.361 257.546 411.58 258.766 413.148 258.766Z" fill="#CFCFD6"/>
<path d="M469.418 223.575H484.225C485.096 223.575 485.793 222.878 485.793 222.007V221.31C485.793 220.439 485.096 219.743 484.225 219.743H469.418C468.547 219.743 467.85 220.439 467.85 221.31V222.007C468.024 222.878 468.547 223.575 469.418 223.575Z" fill="#CFCFD6"/>
<path d="M470.985 259.811H482.483C484.225 259.811 485.619 258.417 485.619 256.675V228.976C485.619 227.234 484.225 225.84 482.483 225.84H470.985C469.243 225.84 467.85 227.234 467.85 228.976V256.675C468.024 258.417 469.243 259.811 470.985 259.811Z" fill="#CFCFD6"/>
<path d="M447.642 269.218C449.181 269.218 450.429 267.97 450.429 266.431C450.429 264.891 449.181 263.643 447.642 263.643C446.102 263.643 444.854 264.891 444.854 266.431C444.854 267.97 446.102 269.218 447.642 269.218Z" fill="#5A5350"/>
<path d="M429.524 287.51V286.465C429.524 286.465 431.091 279.671 441.892 279.671C452.868 279.671 452.519 287.51 452.519 287.51H429.524Z" fill="#324976"/>
<path d="M452.868 280.542C452.868 280.542 450.429 280.368 449.558 279.845C448.687 279.322 443.46 275.838 442.241 276.361C441.021 276.883 432.834 279.322 433.182 280.542C433.53 281.761 434.227 281.587 434.75 281.413C435.273 281.239 441.196 280.019 441.718 280.193C441.718 280.193 435.969 282.284 435.969 283.852C435.969 285.42 437.189 285.768 437.711 286.291C438.234 286.813 438.931 288.381 440.499 288.381C442.067 288.555 449.209 285.942 450.777 285.768C452.345 285.594 455.132 285.942 455.307 285.594C455.481 285.594 452.868 280.542 452.868 280.542Z" fill="#EFA986"/>
<path d="M496.072 240.822C503.563 239.428 511.577 237.512 511.577 237.512L525.688 236.989C525.688 236.989 538.579 239.777 543.631 242.216C544.154 242.39 544.154 253.713 545.373 256.675L541.192 265.56C541.192 265.56 538.753 283.155 538.231 290.994C538.056 294.653 538.927 325.836 538.927 325.836C538.927 325.836 537.708 326.533 528.126 327.578C518.545 328.624 494.504 327.23 494.33 326.01C494.156 324.791 499.033 283.852 499.208 281.587C499.556 278.277 498.337 263.295 498.337 263.295C496.595 265.734 491.891 276.709 487.187 281.935C484.4 285.071 470.289 286.813 467.676 286.987C461.927 287.162 451.474 288.381 451.126 287.684C450.952 287.336 450.255 278.451 450.952 278.103C451.474 277.929 470.986 276.709 476.038 274.096C477.78 273.051 483.355 261.204 483.355 261.204C483.355 261.204 491.891 242.738 496.072 240.822Z" fill="#333757"/>
<path d="M523.771 324.965H547.464C552.167 324.965 556 321.133 556 316.429V277.058C556 272.354 552.167 268.521 547.464 268.521H523.771C519.067 268.521 515.235 272.354 515.235 277.058V316.429C515.235 321.133 519.067 324.965 523.771 324.965Z" fill="#E2D2CA"/>
<path d="M522.378 338.031C528.301 338.031 533.179 335.94 536.837 332.108C545.025 323.049 543.457 307.37 543.457 306.673C543.283 305.454 542.238 304.583 541.018 304.583C539.799 304.757 538.928 305.802 538.928 307.022C538.928 307.196 540.321 321.481 533.527 328.972C530.74 331.934 527.081 333.502 522.378 333.502C521.158 333.502 520.113 334.547 520.113 335.766C520.113 336.986 521.158 338.031 522.378 338.031Z" fill="#E2D2CA"/>
<path d="M448.861 232.983C448.861 235.77 447.816 238.383 446.248 240.299C445.899 240.822 445.377 241.17 445.028 241.519C444.854 241.693 444.68 241.693 444.68 241.867C444.506 242.041 444.331 242.041 444.157 242.216C442.589 243.261 440.847 243.958 438.931 244.306C438.583 244.306 438.234 244.306 437.886 244.306C437.711 244.306 437.711 244.306 437.537 244.306C437.189 244.306 436.84 244.306 436.492 244.306C436.144 244.306 435.621 244.132 435.273 244.132C433.53 243.784 431.963 243.087 430.569 242.041C430.22 241.693 429.698 241.345 429.349 240.996L429.175 240.822C429.001 240.474 428.653 240.299 428.478 239.951C426.91 238.035 426.039 235.596 426.039 232.983C426.039 226.711 431.092 221.659 437.363 221.659C443.809 221.659 448.861 226.711 448.861 232.983Z" fill="#EFF0F7"/>
<path d="M444.854 239.254L443.983 242.216C442.415 243.261 440.673 243.958 438.757 244.306C438.408 244.306 438.06 244.306 437.712 244.306C437.537 244.306 437.537 244.306 437.363 244.306C437.015 244.306 436.666 244.306 436.318 244.306C435.97 244.306 435.447 244.132 435.098 244.132C433.356 243.784 431.789 243.087 430.395 242.041C430.221 240.996 430.046 239.951 429.872 238.906C430.743 238.557 433.356 237.686 435.098 237.164C435.098 237.164 435.098 237.164 435.273 237.164C435.447 237.164 435.447 237.164 435.621 236.989C435.795 236.989 435.795 236.989 435.97 236.815C436.318 236.641 436.492 236.641 436.666 236.641L438.931 236.815H439.28H439.454C439.628 236.815 439.976 236.989 440.499 237.164C441.893 237.512 443.983 238.383 444.854 239.254Z" fill="#D9C7C1"/>
<path d="M438.06 227.408C438.06 227.408 440.847 227.93 440.325 232.111C439.802 236.292 437.537 235.944 437.363 235.944C437.189 235.944 434.924 235.944 434.924 230.892C434.75 230.718 434.75 226.885 438.06 227.408Z" fill="#EEA987"/>
<path d="M439.279 234.725C439.279 234.725 439.105 236.467 439.279 236.815C439.454 237.164 437.189 238.383 435.621 236.989C435.621 236.989 435.969 235.073 435.795 234.376C435.795 233.679 439.279 234.725 439.279 234.725Z" fill="#EEA987"/>
<path d="M440.325 230.892C440.325 230.892 440.673 230.544 440.673 230.892C440.847 231.24 440.15 232.634 440.15 232.634C440.15 232.634 440.151 232.808 439.976 232.634C440.151 232.634 440.325 230.892 440.325 230.892Z" fill="#EEA987"/>
<path d="M434.75 230.718C434.75 230.718 434.402 230.369 434.402 230.718C434.228 231.066 434.75 232.46 434.75 232.634C434.75 232.634 434.924 232.808 434.924 232.634L434.75 230.718Z" fill="#EEA987"/>
<path d="M440.499 230.544C440.325 231.066 440.325 231.589 440.325 231.589L439.977 232.112C439.977 232.112 439.977 230.892 439.977 230.718C439.977 230.718 439.977 230.544 439.977 230.369C439.977 230.195 439.802 229.847 439.802 229.847C439.802 229.673 437.538 228.976 435.447 230.021C435.447 230.021 435.447 230.195 435.447 230.369C435.447 230.544 435.447 230.892 435.273 230.892C435.099 230.892 435.099 232.286 435.099 232.286L434.75 231.937C434.75 231.937 434.576 231.24 434.576 230.544C434.576 230.369 434.576 230.195 434.576 230.021C434.576 229.324 434.576 227.931 435.621 227.059C436.318 226.711 437.363 226.537 439.106 227.059C439.106 227.059 439.454 227.059 439.628 227.234C440.848 228.279 440.499 230.544 440.499 230.544Z" fill="#1A0801"/>
<path d="M436.144 235.421C436.144 235.421 436.492 235.944 437.537 235.944C438.583 235.944 438.931 235.421 438.931 235.421C438.931 235.421 438.408 236.467 437.537 236.467C436.492 236.292 436.144 235.421 436.144 235.421Z" fill="#C68C71"/>
<path d="M435.447 236.989C435.447 236.989 436.144 238.209 437.537 238.383C438.408 238.383 439.105 237.338 439.454 236.815C439.454 236.815 437.537 235.944 435.447 236.989Z" fill="#EEA987"/>
<path d="M439.279 236.467C439.279 236.467 438.757 237.164 437.537 238.035L438.234 239.08L439.454 236.815L439.279 236.467Z" fill="#EDDAD3"/>
<path d="M435.795 236.641C435.795 236.641 436.492 237.512 437.538 238.035L436.666 239.254L435.273 237.164L435.795 236.641Z" fill="#EDDAD3"/>
<path d="M437.537 238.035L438.234 238.906C438.234 238.906 437.537 239.254 437.015 238.906L437.537 238.035Z" fill="#5173AB"/>
<path d="M445.551 239.08C445.377 239.428 445.203 240.299 444.854 241.519C444.68 241.693 444.506 241.693 444.506 241.867C444.332 242.041 444.157 242.041 443.983 242.216C442.415 243.261 440.673 243.958 438.757 244.306C438.931 240.299 439.454 236.815 439.454 236.815C439.802 236.989 440.151 236.989 440.499 237.164C443.461 238.035 444.854 238.731 445.377 239.08C445.551 239.08 445.551 239.08 445.551 239.08Z" fill="#333757"/>
<path d="M435.273 244.132C433.531 243.784 431.963 243.087 430.569 242.041C430.221 241.693 429.698 241.345 429.35 240.996L429.175 240.822C429.001 239.951 428.827 239.428 428.827 239.428C428.827 239.428 430.221 238.557 435.273 237.164C435.273 237.164 435.273 240.474 435.273 244.132Z" fill="#333757"/>
<path d="M437.886 239.08C437.886 240.125 437.886 242.216 437.886 244.48C437.712 244.48 437.712 244.48 437.537 244.48C437.189 244.48 436.841 244.48 436.492 244.48C436.666 241.693 437.015 239.951 437.189 239.254C437.189 239.08 437.363 238.906 437.363 238.906L438.06 239.08C437.886 238.906 437.886 238.906 437.886 239.08Z" fill="#5173AB"/>
<path d="M446.248 240.299C445.9 240.822 445.377 241.17 445.028 241.519C444.854 241.693 444.68 241.693 444.68 241.867L445.551 238.906L445.725 239.08C445.725 239.428 445.9 239.777 446.248 240.299Z" fill="#333757"/>
<path d="M429.35 240.996L429.175 240.822C429.001 240.473 428.653 240.299 428.479 239.951C428.653 239.602 428.653 239.428 428.827 239.428L429.35 240.996Z" fill="#333757"/>
<path d="M352.871 377.577C352.871 377.577 351.304 375.138 349.387 374.267C347.297 373.396 343.116 376.706 342.767 378.448L337.889 385.416L338.76 386.113L341.374 382.28C339.632 386.461 337.193 391.513 338.935 394.127C341.374 397.611 346.6 400.921 347.994 400.398C349.387 399.875 349.213 389.946 349.213 389.946C347.819 381.061 352.871 377.577 352.871 377.577Z" fill="#1D3C55"/>
<path d="M352.872 377.577C352.872 377.577 351.13 380.887 350.259 383.674C349.387 386.287 349.213 393.604 348.691 394.127C348.168 394.649 343.639 392.384 342.942 389.597C342.419 386.81 344.161 381.409 345.903 378.622C347.645 375.834 349.387 374.267 349.387 374.267C349.387 374.267 352.523 374.789 352.872 377.577Z" fill="#8A6956"/>
<path d="M370.292 313.816C370.292 313.816 367.505 328.45 367.505 331.934C367.505 335.418 366.634 341.167 364.369 345.348C362.104 349.529 352.349 378.448 351.478 381.932C350.607 385.242 349.91 388.552 349.91 388.552C349.91 388.552 345.032 386.287 345.032 383.151C345.032 380.016 349.213 353.71 350.084 348.484C350.781 343.257 356.878 316.778 356.878 316.778L370.292 313.816Z" fill="#8A6956"/>
<path d="M354.788 312.945C354.788 312.945 355.659 325.139 355.659 328.275C355.485 331.411 354.091 338.728 354.091 340.47C354.091 342.386 354.091 381.932 355.659 386.636C357.227 391.339 351.303 388.203 351.303 388.203C351.303 388.203 340.851 362.246 340.851 351.445C340.851 340.644 342.07 335.244 341.374 328.275C340.677 321.481 337.367 312.422 337.367 312.422L354.788 312.945Z" fill="#7D5F4D"/>
<path d="M338.935 254.236C338.935 254.236 333.36 261.204 331.792 270.263C330.224 279.496 333.534 296.917 334.754 301.795C335.799 306.151 337.715 320.262 337.715 321.829C337.715 321.829 356.704 323.92 370.99 319.391C370.99 319.391 372.383 299.705 373.08 291.343C373.951 282.981 369.77 254.759 369.77 254.759L338.935 254.236Z" fill="#EA4748"/>
<path d="M360.537 398.656C353.742 392.733 355.485 386.636 355.485 386.636C355.485 386.636 352.697 385.59 350.607 386.287C348.342 386.81 347.297 392.036 348.168 393.778L348.865 402.489L349.91 402.314L349.561 397.785C350.955 402.314 352.175 407.889 355.136 408.76C359.143 409.98 365.589 409.283 366.286 407.889C367.157 406.321 360.537 398.656 360.537 398.656Z" fill="#1D3C55"/>
<path d="M364.544 189.779C364.544 189.779 362.801 199.708 364.369 203.193C365.763 206.503 356.704 199.186 356.704 199.186C356.704 199.186 360.363 188.211 364.544 189.779Z" fill="#1A0801"/>
<path d="M361.059 162.079C361.059 162.079 346.426 158.769 344.509 174.448C342.593 190.127 349.213 192.043 344.858 202.67C340.328 213.297 355.833 199.186 355.833 199.186L361.059 162.079Z" fill="#1A0801"/>
<path d="M359.84 161.905C363.672 161.905 371.86 163.996 372.906 173.925C372.906 173.925 372.557 176.539 371.86 178.629C371.163 180.72 372.906 186.991 372.383 187.34C371.86 187.688 369.77 188.036 369.77 188.036C369.77 188.036 367.331 194.831 365.066 194.656C362.627 194.482 353.742 192.392 349.736 183.855C345.555 175.145 344.684 162.079 359.84 161.905Z" fill="#6D5140"/>
<path d="M318.726 286.116C318.726 286.116 319.075 280.019 320.643 279.148C322.211 278.277 321.339 280.019 321.339 280.019C321.339 280.019 320.468 284.374 320.294 286.116C320.294 286.291 318.726 286.116 318.726 286.116Z" fill="#1D3C55"/>
<path d="M326.217 272.528C326.217 272.528 326.74 275.316 327.437 277.929C328.308 280.542 329.005 281.413 328.656 282.807C328.482 283.852 327.088 284.723 326.74 284.374C326.392 284.026 326.217 279.671 324.475 279.671C322.733 279.671 324.998 285.071 323.953 284.723C322.907 284.375 318.726 282.11 318.901 279.845C319.249 277.58 320.817 276.012 320.643 272.702C320.468 269.741 321.514 268.521 321.514 268.521L326.217 272.528Z" fill="#6D5140"/>
<path d="M324.649 279.497C324.649 279.497 327.088 280.193 326.914 288.381L324.127 287.859C324.127 287.859 324.127 283.329 323.43 280.89C323.43 280.89 323.604 279.148 324.649 279.497Z" fill="#1D3C55"/>
<path d="M334.754 290.123L313.5 284.026V310.332L334.754 323.049V290.123Z" fill="#EDDAD3"/>
<path d="M334.754 323.049L332.14 323.572L311.41 310.854L311.584 284.2L313.5 284.026L334.754 323.049Z" fill="#EDDAD3"/>
<path d="M361.931 198.663C361.931 198.663 367.679 200.928 368.725 201.799C369.77 202.496 371.86 210.684 372.209 211.381C372.732 212.077 377.609 218.175 376.913 223.227C376.39 227.059 374.125 229.15 372.732 230.718C371.338 232.286 369.944 240.474 369.596 241.693C369.073 242.913 370.641 258.94 370.641 258.94C370.641 258.94 353.917 265.386 338.935 254.41C338.935 254.41 341.896 243.609 341.896 241.693C341.896 239.777 339.98 226.188 334.754 218.175C329.528 210.161 335.625 201.625 339.632 200.58C343.639 199.534 351.304 196.747 351.304 196.747L361.931 198.663Z" fill="#EA4748"/>
<path d="M343.638 199.186C343.638 199.186 335.276 198.663 331.095 203.541C326.914 208.419 327.088 214.168 326.043 216.781C324.998 219.22 322.559 230.195 322.036 231.937C321.514 233.679 320.991 243.609 320.294 251.449C319.597 259.462 319.772 274.27 319.772 274.27L327.785 272.877C327.785 272.877 328.134 258.766 328.308 250.578C328.482 242.39 335.102 227.931 337.715 221.659C339.98 215.213 350.084 203.193 343.638 199.186Z" fill="#EA4748"/>
<path d="M367.853 201.276C367.853 201.276 371.512 201.451 373.254 205.109C374.996 208.767 375.693 211.729 376.215 212.774C376.738 213.645 383.01 225.666 383.358 228.453C383.706 231.066 383.184 235.944 379.7 237.338C376.39 238.557 364.369 238.731 364.369 238.731C364.369 238.731 367.505 232.46 364.543 229.324C364.543 229.324 373.254 227.756 375.344 227.582C377.435 227.408 365.066 204.064 367.853 201.276Z" fill="#EA4748"/>
<path d="M347.819 211.729L364.021 249.707L384.403 240.125L369.421 203.541L347.819 211.729Z" fill="#1D3C55"/>
<path d="M357.053 230.369C357.053 230.369 354.788 230.892 354.091 231.066C353.394 231.24 354.265 232.46 355.136 232.46C356.007 232.46 357.053 230.369 357.053 230.369Z" fill="#6D5140"/>
<path d="M358.62 241.171C358.62 241.171 359.666 241.17 360.014 240.822C360.014 240.822 360.711 240.299 361.408 239.951C361.582 239.777 361.756 239.777 361.93 239.777C362.453 239.603 363.498 239.254 364.369 238.557C365.24 237.861 368.376 234.899 368.376 234.899L366.286 231.763L364.718 229.324C364.718 229.324 358.098 229.498 357.052 230.021C356.878 230.021 356.878 230.195 356.704 230.195C356.007 230.718 355.659 231.589 355.31 231.937C355.136 232.112 353.917 233.505 353.917 234.028C354.091 234.725 354.439 235.247 354.962 235.596C354.962 235.596 355.31 237.164 356.007 237.686C356.007 237.686 356.181 239.08 357.401 239.603C357.401 239.603 357.749 240.996 358.62 241.171Z" fill="#6D5140"/>
<path d="M364.544 229.324C364.544 229.324 374.474 227.582 377.261 227.234C377.261 227.234 377.435 223.749 376.912 220.788C376.39 217.826 373.951 213.819 373.951 213.819L379.003 218.523C379.003 218.523 383.184 226.537 383.184 228.453C383.358 230.369 383.707 233.157 381.268 236.118C378.829 239.08 367.157 237.686 367.157 237.686C367.157 237.686 368.202 234.202 364.544 229.324Z" fill="#EA4748"/>
<path d="M361.408 193.088C361.408 193.088 361.059 193.96 360.711 195.527C360.537 196.224 360.362 197.095 360.188 197.966C359.666 200.405 359.317 203.367 360.014 205.283C360.014 205.283 354.613 207.025 350.781 199.36C350.781 199.36 352.871 191.346 350.607 186.468C348.342 181.416 361.408 193.088 361.408 193.088Z" fill="#6D5140"/>
<path d="M372.906 173.925C372.906 173.925 366.634 177.932 360.537 178.629C354.439 179.326 351.13 188.559 351.13 188.559C351.13 188.559 341.548 173.577 349.213 164.518C357.053 155.285 374.648 162.253 372.906 173.925Z" fill="#1A0801"/>
<path d="M358.098 178.281C358.098 177.061 356.878 175.319 354.788 176.887C352.872 178.455 355.31 184.03 356.878 183.507C358.446 182.984 358.098 179.5 358.098 178.281Z" fill="#6D5140"/>
<path d="M362.279 198.837C362.279 198.837 364.718 206.328 358.969 206.154C353.046 206.154 350.607 201.451 348.865 197.444C348.865 197.444 351.652 196.05 352.871 195.876C353.917 195.876 362.279 198.837 362.279 198.837Z" fill="#6D5140"/>
<path d="M327.088 287.859L324.301 288.207V286.988L327.088 287.859Z" fill="#1D3C55"/>
<path d="M320.294 286.116L318.726 286.291C318.726 286.291 318.726 285.768 318.726 285.594C318.901 285.42 320.294 285.942 320.294 286.116Z" fill="#1D3C55"/>
<path d="M355.659 386.636C355.659 386.636 356.356 390.468 357.401 393.081C358.446 395.694 362.801 401.618 362.801 402.314C362.627 403.011 357.749 404.231 355.485 402.314C353.22 400.572 351.304 395.172 350.781 391.688C350.258 388.378 350.607 386.113 350.607 386.113C350.607 386.113 353.394 384.719 355.659 386.636Z" fill="#7D5F4D"/>
<path d="M361.234 193.785C361.059 194.482 360.711 195.353 360.537 196.224C355.659 192.914 353.394 189.082 353.394 189.082C356.182 191.695 361.234 193.785 361.234 193.785Z" fill="#7D5F4D"/>
<path d="M137.897 51.1076H194.689C199.393 51.1076 203.051 54.9402 203.051 59.4696V82.4653C203.051 87.169 199.218 90.8274 194.689 90.8274H137.897C133.193 90.8274 129.535 86.9948 129.535 82.4653V59.6438C129.535 54.9402 133.193 51.1076 137.897 51.1076Z" fill="#DFE1E8"/>
<path d="M56.5407 244.306H110.894C112.462 244.306 113.682 243.087 113.682 241.519V239.777C113.682 238.209 112.462 236.989 110.894 236.989H56.5407C54.9728 236.989 53.7534 238.209 53.7534 239.777V241.519C53.9276 243.087 55.147 244.306 56.5407 244.306Z" fill="#B9DDF5"/>
<path d="M56.5407 257.198H110.894C112.462 257.198 113.682 255.978 113.682 254.41V252.668C113.682 251.1 112.462 249.881 110.894 249.881H56.5407C54.9728 249.881 53.7534 251.1 53.7534 252.668V254.41C53.9276 255.978 55.147 257.198 56.5407 257.198Z" fill="#B9DDF5"/>
<path d="M56.5407 270.089H110.894C112.462 270.089 113.682 268.87 113.682 267.302V265.56C113.682 263.992 112.462 262.772 110.894 262.772H56.5407C54.9728 262.772 53.7534 263.992 53.7534 265.56V267.302C53.9276 268.87 55.147 270.089 56.5407 270.089Z" fill="#B9DDF5"/>
<path d="M148.001 209.638H134.935C132.148 209.638 129.883 207.374 129.883 204.586V164.518C129.883 161.731 132.148 159.466 134.935 159.466H148.001C150.788 159.466 153.053 161.731 153.053 164.518V204.586C153.053 207.374 150.788 209.638 148.001 209.638Z" fill="#B9DDF5"/>
<path d="M8.45889 299.705C8.45889 299.705 9.32994 301.098 9.50415 302.318C9.67836 303.189 10.3752 304.583 10.7236 305.454C11.072 306.151 12.1173 309.809 12.2915 310.68C12.2915 311.028 11.4205 313.467 11.5947 314.164C11.7689 314.861 12.1173 316.429 11.4204 316.603C10.7236 316.777 10.0268 315.558 10.0268 315.558C10.0268 315.558 10.0268 316.255 9.50415 316.603C8.4589 317.126 7.76206 316.603 7.76206 316.603C7.76206 316.603 7.41364 317.3 6.89101 317.474C5.67154 317.648 5.14891 317.3 5.14891 317.3C5.14891 317.3 4.62626 317.648 3.92942 317.648C2.88416 317.648 2.53576 316.777 2.53576 316.777C2.53576 316.777 1.31628 316.952 0.96786 316.429C0.619441 315.906 0.619435 315.209 0.445226 314.687C0.271016 314.164 0.445242 309.286 2.01313 305.802C3.75523 302.318 1.66472 298.834 1.66472 298.834L8.45889 299.705Z" fill="#EFA986"/>
<path d="M10.0267 315.035C10.0267 315.035 10.201 310.68 8.98149 309.809C7.76202 308.938 7.76202 310.506 7.76202 310.506C7.76202 310.506 7.93622 308.938 6.71675 308.764C5.49729 308.59 5.32307 310.332 5.32307 310.332C5.32307 310.332 5.14887 309.112 3.75519 309.461C2.36152 309.635 2.70992 311.203 2.70992 311.203C2.70992 311.203 1.49046 309.635 0.619412 311.203C-0.774266 313.642 0.619412 316.603 0.619412 316.603C0.619412 316.603 0.967821 317.3 2.18729 316.952C2.18729 316.952 3.05835 318.694 4.97466 317.474C4.97466 317.474 6.89096 318.52 7.5878 316.777C7.5878 316.429 9.85252 317.474 10.0267 315.035Z" fill="#DC9D7C"/>
<path d="M23.2666 236.815C23.2666 236.815 15.7756 261.727 13.3367 270.96C12.4656 273.922 10.5493 301.447 10.2009 302.492C9.85247 303.537 0.445129 305.105 0.445129 305.105C0.445129 305.105 1.66462 270.612 1.66462 268.695C1.83883 266.779 12.1172 228.279 15.0788 226.885C17.3435 225.84 18.5629 226.711 21.3503 228.801C25.3571 231.937 23.2666 236.815 23.2666 236.815Z" fill="#333757"/>
<path d="M114.201 191.919L113.342 190.607L96.1425 201.866L97.0013 203.178L114.201 191.919Z" fill="#5CA4DA"/>
<path d="M116.12 197.095C116.12 197.095 115.946 198.141 115.598 198.489C115.598 198.489 115.075 199.186 114.727 199.708C114.553 199.883 114.553 200.057 114.378 200.057C114.204 200.405 113.856 201.451 112.985 202.322C112.114 203.193 108.978 205.806 108.978 205.806L106.191 203.541L103.403 202.322C103.403 202.322 104.971 195.527 105.668 194.656L105.842 194.482C106.539 193.785 107.236 193.611 107.584 193.263C107.758 193.089 109.152 192.043 109.675 192.217C110.372 192.392 110.894 192.74 111.068 193.263C111.068 193.263 112.462 193.611 112.985 194.482C112.985 194.482 114.204 194.831 114.727 196.05C114.727 195.702 115.946 196.224 116.12 197.095Z" fill="#EFAA88"/>
<path d="M17.1693 407.018C17.1693 407.018 16.4725 411.722 16.4725 412.419C16.4725 413.115 8.80724 412.07 8.80724 412.07L8.28461 406.495C8.28461 406.495 16.2983 406.321 17.1693 407.018Z" fill="#434874"/>
<path d="M16.4725 411.896C16.4725 411.896 18.9114 414.683 21.1761 416.077C23.4409 417.296 27.0993 417.819 28.4929 419.039C29.5382 419.91 32.1514 423.916 22.5698 423.916C12.9883 423.916 8.45881 424.439 7.41355 422.871C6.36829 421.303 8.80723 411.548 8.80723 411.548C8.80723 411.548 11.072 412.419 16.4725 411.896Z" fill="#2A2D47"/>
<path d="M71.0001 407.018C71.0001 407.018 70.3033 411.722 70.3033 412.419C70.3033 413.115 62.638 412.07 62.638 412.07L62.1154 406.495C61.9412 406.495 69.9548 406.321 71.0001 407.018Z" fill="#434874"/>
<path d="M70.3033 411.896C70.3033 411.896 72.7423 414.683 75.007 416.077C77.2717 417.296 85.808 418.342 87.2017 419.561C88.2469 420.432 89.8148 424.265 76.4007 423.916C66.8191 423.742 62.2897 424.439 61.2444 422.871C60.1992 421.303 62.6381 411.548 62.6381 411.548C62.6381 411.548 64.7286 412.419 70.3033 411.896Z" fill="#2A2D47"/>
<path d="M23.4409 285.42C23.4409 285.42 16.4725 296.569 16.9952 306.673C17.5178 316.777 14.382 327.927 13.3368 338.379C12.1173 350.226 7.23942 378.099 7.06521 384.371C6.891 390.642 7.76207 410.851 7.76207 410.851L17.5178 411.025C17.5178 411.025 25.7057 362.246 27.7962 357.194C29.8867 352.142 40.3393 316.777 40.6877 312.771C41.0361 308.938 23.4409 285.42 23.4409 285.42Z" fill="#2A2D47"/>
<path d="M60.5475 286.988C60.5475 286.988 65.948 314.687 66.6448 320.958C67.3417 327.23 67.8643 350.923 68.2127 354.755C68.5611 358.588 71.5227 405.276 72.3937 411.199H60.0249C60.0249 411.199 50.6175 377.228 50.6175 361.027C50.6175 344.825 43.3007 326.011 38.5971 315.384C33.8934 304.757 23.0924 304.583 20.1308 284.723C19.9566 284.897 56.5406 280.716 60.5475 286.988Z" fill="#2A2D47"/>
<path d="M35.1129 191.172C35.1129 191.172 44.5202 187.688 48.8754 194.831C53.2307 201.973 52.8823 216.433 48.0044 218.175C43.3007 219.917 35.9839 219.046 33.545 214.516C31.106 209.987 28.8413 203.541 29.0155 199.186C29.364 194.831 32.6739 192.392 35.1129 191.172Z" fill="#EFA986"/>
<path d="M47.1334 218.523C47.1334 218.523 46.785 221.136 47.3076 222.356C48.0045 223.575 35.1129 223.575 35.1129 223.575C35.1129 223.575 34.0677 216.781 32.1514 210.858C30.0609 205.283 47.1334 218.523 47.1334 218.523Z" fill="#EFA986"/>
<path d="M32.1513 211.032C32.1513 211.032 33.0224 212.426 36.6808 211.903C40.3392 211.38 44.6944 206.503 46.2623 205.98C47.8302 205.457 47.8302 204.586 47.8302 204.586L48.7013 205.98L50.2691 206.154C50.2691 206.154 48.8754 201.799 50.966 200.057C53.2307 198.315 48.7012 186.12 37.0292 190.127C37.0292 190.127 28.1445 192.566 28.3187 197.618C28.8413 202.67 30.0608 208.593 32.1513 211.032Z" fill="#D88A51"/>
<path d="M48.1788 222.182C48.1788 222.182 48.1788 219.743 47.1335 219.568C46.0882 219.394 35.113 218.349 33.7194 218.872V221.659C33.7194 221.659 36.3325 223.227 48.1788 222.182Z" fill="#E2D2CA"/>
<path d="M47.4818 202.844C47.3076 201.973 45.0429 199.534 44.3461 202.147C43.475 204.761 45.5655 208.245 46.785 207.896C47.8303 207.548 48.0045 204.935 47.4818 202.844Z" fill="#EFA986"/>
<path d="M66.2965 225.84C58.8055 224.795 48.1787 222.182 48.1787 222.182L33.7193 221.659C33.7193 221.659 20.4793 224.621 15.253 226.885C14.7304 227.059 14.7304 238.732 13.3367 241.867L17.692 251.1C17.692 251.1 20.1309 269.218 20.6535 277.406C20.8277 281.064 15.4272 312.248 15.4272 312.248C15.4272 312.248 21.1762 313.99 31.1061 315.035C41.0361 316.081 65.7739 314.687 65.9481 313.468C66.1223 312.248 61.2444 269.915 60.896 267.825C60.5476 264.515 62.1155 246.571 62.1155 246.571C64.3802 244.829 84.4143 235.422 89.989 230.718C91.3827 229.498 97.6542 223.401 99.3963 221.31C105.668 213.994 110.72 207.722 111.417 206.329C112.114 205.632 104.623 201.451 103.926 201.276C103.403 201.102 94.8669 211.903 91.7311 215.562C90.3374 217.129 84.2401 221.485 84.2401 221.485C84.2401 221.485 71.0001 226.188 66.2965 225.84Z" fill="#333757"/>
<path d="M32.4997 192.043C32.4997 192.043 20.4793 192.914 32.1513 211.032L32.4997 192.043Z" fill="#D88A51"/>
<path d="M114.204 191.869L115.249 190.301L113.333 190.65L114.204 191.869Z" fill="#DFE1E8"/>
<defs>
<linearGradient id="paint0_linear" x1="114.132" y1="15.2357" x2="454.623" y2="15.2357" gradientUnits="userSpaceOnUse">
<stop stop-color="#EA4748"/>
<stop offset="1" stop-color="#970E0F"/>
</linearGradient>
</defs>
</svg>
